<svg width="68" height="68" viewBox="0 0 68 68" fill="none" xmlns="http://www.w3.org/2000/svg">
<rect width="68" height="68" rx="34" fill="#FF9F1C" fill-opacity="0.1"/>
<g clip-path="url(#clip0_24_61)">
<path fill-rule="evenodd" clip-rule="evenodd" d="M50.6191 40.9222C50.6191 48.5645 43.6943 52 34 52C24.3057 52 17.3809 48.5645 17.3809 40.9762C17.3809 32.668 21.5363 28.4585 29.8446 24.2491L26.9029 18.7694C26.7273 18.4949 26.6296 18.178 26.6201 17.8523C26.6105 17.5267 26.6896 17.2045 26.8487 16.9203C27.0079 16.636 27.2412 16.4003 27.5238 16.2382C27.8064 16.0761 28.1277 15.9938 28.4534 16H40.1971C40.5025 16.0078 40.8008 16.0931 41.064 16.248C41.3272 16.4029 41.5467 16.6222 41.7018 16.8853C41.8569 17.1484 41.9424 17.4467 41.9505 17.752C41.9585 18.0573 41.8887 18.3596 41.7477 18.6305L38.1554 24.2491C46.4611 28.402 50.6191 32.6114 50.6191 40.9222ZM35.6071 28.5665C35.6071 28.1403 35.4378 27.7315 35.1364 27.4301C34.835 27.1287 34.4262 26.9594 34 26.9594C33.5738 26.9594 33.165 27.1287 32.8636 27.4301C32.5622 27.7315 32.3929 28.1403 32.3929 28.5665V30.1788C31.3036 30.2208 30.2671 30.659 29.478 31.4111C28.6889 32.1633 28.2016 33.1776 28.1075 34.2636C28.0134 35.3497 28.3191 36.4327 28.967 37.3093C29.615 38.186 30.5607 38.7959 31.6266 39.0245L35.4143 39.8525C35.8025 39.9361 36.146 40.1605 36.3787 40.4823C36.6113 40.8042 36.7165 41.2008 36.674 41.5956C36.6315 41.9905 36.4443 42.3556 36.1486 42.6206C35.8528 42.8856 35.4694 43.0317 35.0723 43.0308H32.9277C32.5953 43.0313 32.2708 42.9287 31.9991 42.7372C31.7274 42.5456 31.5218 42.2744 31.4106 41.9611C31.3456 41.7555 31.24 41.5651 31.1 41.4012C30.9599 41.2373 30.7884 41.1032 30.5954 41.007C30.4025 40.9107 30.1922 40.8543 29.977 40.841C29.7618 40.8277 29.5462 40.8579 29.3429 40.9297C29.1396 41.0015 28.9528 41.1134 28.7937 41.2589C28.6346 41.4043 28.5063 41.5803 28.4166 41.7764C28.3269 41.9724 28.2776 42.1845 28.2715 42.4C28.2655 42.6155 28.3029 42.83 28.3814 43.0308C28.6845 43.8843 29.2212 44.6355 29.9304 45.1988C30.6397 45.7621 31.4929 46.1149 32.3929 46.2168V47.8522C32.3929 48.2785 32.5622 48.6873 32.8636 48.9887C33.165 49.2901 33.5738 49.4594 34 49.4594C34.4262 49.4594 34.835 49.2901 35.1364 48.9887C35.4378 48.6873 35.6071 48.2785 35.6071 47.8522V46.2168C36.7418 46.0878 37.7939 45.5605 38.5763 44.7286C39.3586 43.8968 39.8205 42.8144 39.8798 41.6739C39.939 40.5335 39.5918 39.4091 38.8998 38.5006C38.2078 37.5922 37.216 36.9587 36.1009 36.7128L32.3131 35.8848C32.0058 35.8219 31.733 35.6466 31.5481 35.3933C31.3632 35.1399 31.2794 34.8267 31.3131 34.5148C31.3469 34.2029 31.4958 33.9149 31.7306 33.707C31.9655 33.4991 32.2695 33.3862 32.5831 33.3905H35.0723C35.4052 33.3881 35.7305 33.49 36.0026 33.6818C36.2747 33.8736 36.4799 34.1459 36.5894 34.4602C36.739 34.8521 37.0358 35.17 37.4166 35.346C37.7973 35.522 38.2318 35.5422 38.6272 35.4022C39.0227 35.2622 39.3477 34.9732 39.5329 34.5969C39.7181 34.2205 39.7489 33.7867 39.6186 33.388C39.3178 32.5333 38.7816 31.781 38.0719 31.2178C37.3622 30.6546 36.5078 30.3033 35.6071 30.2045V28.5665Z" fill="#FF9F1C"/>
</g>
<defs>
<clipPath id="clip0_24_61">
<rect width="36" height="36" fill="white" transform="translate(16 16)"/>
</clipPath>
</defs>
</svg>
