<svg width="58" height="58" viewBox="0 0 58 58" fill="none" xmlns="http://www.w3.org/2000/svg">
<circle cx="29" cy="29" r="29" fill="#4075FF" fill-opacity="0.05"/>
<path d="M40.1533 27.5299L38.5666 25.6866C38.2633 25.3366 38.0183 24.6832 38.0183 24.2166V22.2332C38.0183 20.9966 37.0033 19.9816 35.7666 19.9816H33.7833C33.3283 19.9816 32.6633 19.7366 32.3133 19.4332L30.4699 17.8466C29.6649 17.1582 28.3466 17.1582 27.5299 17.8466L25.6983 19.4449C25.3483 19.7366 24.6833 19.9816 24.2283 19.9816H22.2099C20.9733 19.9816 19.9583 20.9966 19.9583 22.2332V24.2282C19.9583 24.6832 19.7133 25.3366 19.4216 25.6866L17.8466 27.5416C17.1699 28.3466 17.1699 29.6532 17.8466 30.4582L19.4216 32.3132C19.7133 32.6632 19.9583 33.3166 19.9583 33.7716V35.7666C19.9583 37.0032 20.9733 38.0182 22.2099 38.0182H24.2283C24.6833 38.0182 25.3483 38.2632 25.6983 38.5666L27.5416 40.1532C28.3466 40.8416 29.6649 40.8416 30.4816 40.1532L32.3249 38.5666C32.6749 38.2632 33.3283 38.0182 33.7949 38.0182H35.7783C37.0149 38.0182 38.0299 37.0032 38.0299 35.7666V33.7832C38.0299 33.3282 38.2749 32.6632 38.5783 32.3132L40.1649 30.4699C40.8416 29.6649 40.8416 28.3349 40.1533 27.5299ZM34.4599 28.9999L33.0949 33.1532C32.9199 33.8416 32.1849 34.4016 31.4383 34.4016H29.2799C28.9066 34.4016 28.3816 34.2732 28.1483 34.0399L26.4333 32.6982C26.3983 33.4449 26.0599 33.7599 25.2316 33.7599H24.6716C23.8083 33.7599 23.4583 33.4216 23.4583 32.6049V27.0282C23.4583 26.2116 23.8083 25.8732 24.6716 25.8732H25.2433C26.1066 25.8732 26.4566 26.2116 26.4566 27.0282V27.4482L28.7199 24.0882C28.9533 23.7266 29.5483 23.4699 30.0499 23.6682C30.5983 23.8549 30.9483 24.4616 30.8316 24.9982L30.5516 26.8182C30.5283 26.9816 30.5633 27.1332 30.6683 27.2499C30.7616 27.3549 30.9016 27.4249 31.0533 27.4249H33.3283C33.7716 27.4249 34.1449 27.5999 34.3666 27.9149C34.5649 28.2182 34.5999 28.6032 34.4599 28.9999Z" fill="#4075FF"/>
</svg>
