<svg width="58" height="58" viewBox="0 0 58 58" fill="none" xmlns="http://www.w3.org/2000/svg">
<circle cx="29" cy="29" r="29" fill="#AB30FF" fill-opacity="0.05"/>
<path d="M26.9585 26.7017C26.9585 27.3317 27.1335 27.4251 27.5302 27.5651L28.1252 27.7751V25.7917H27.7752C27.3318 25.7917 26.9585 26.2001 26.9585 26.7017Z" fill="#AB30FF"/>
<path d="M29.875 32.2084H30.225C30.68 32.2084 31.0417 31.8001 31.0417 31.2984C31.0417 30.6684 30.8667 30.5751 30.47 30.4351L29.875 30.2251V32.2084Z" fill="#AB30FF"/>
<path d="M37.8435 21.3933L35.4518 23.7849C35.2768 23.9599 35.0552 24.0416 34.8335 24.0416C34.6118 24.0416 34.3902 23.9599 34.2152 23.7849C33.8768 23.4466 33.8768 22.8866 34.2152 22.5483L36.6068 20.1566C34.5535 18.4066 31.9052 17.3333 29.0002 17.3333C22.5602 17.3333 17.3335 22.5599 17.3335 28.9999C17.3335 35.4399 22.5602 40.6666 29.0002 40.6666C35.4402 40.6666 40.6668 35.4399 40.6668 28.9999C40.6668 26.0949 39.5935 23.4466 37.8435 21.3933ZM31.0418 28.7899C31.7885 29.0583 32.7918 29.5949 32.7918 31.3099C32.7918 32.7683 31.6368 33.9699 30.2252 33.9699H29.8752V34.2616C29.8752 34.7399 29.4785 35.1366 29.0002 35.1366C28.5218 35.1366 28.1252 34.7399 28.1252 34.2616V33.9699H28.0318C26.4802 33.9699 25.2085 32.6633 25.2085 31.0533C25.2085 30.5633 25.6052 30.1666 26.0835 30.1666C26.5618 30.1666 26.9585 30.5633 26.9585 31.0416C26.9585 31.6833 27.4368 32.2083 28.0318 32.2083H28.1252V29.6183L26.9585 29.2099C26.2118 28.9416 25.2085 28.4049 25.2085 26.6899C25.2085 25.2316 26.3635 24.0299 27.7752 24.0299H28.1252V23.7499C28.1252 23.2716 28.5218 22.8749 29.0002 22.8749C29.4785 22.8749 29.8752 23.2716 29.8752 23.7499V24.0416H29.9685C31.5202 24.0416 32.7918 25.3483 32.7918 26.9583C32.7918 27.4366 32.3952 27.8333 31.9168 27.8333C31.4385 27.8333 31.0418 27.4366 31.0418 26.9583C31.0418 26.3166 30.5635 25.7916 29.9685 25.7916H29.8752V28.3816L31.0418 28.7899Z" fill="#AB30FF"/>
<path d="M41.4717 16.9949C41.3783 16.7849 41.215 16.6099 40.9933 16.5166C40.8883 16.4816 40.7833 16.4583 40.6667 16.4583H36C35.5217 16.4583 35.125 16.8549 35.125 17.3333C35.125 17.8116 35.5217 18.2083 36 18.2083H38.555L36.6067 20.1566C37.05 20.5416 37.4583 20.9499 37.8433 21.3933L39.7917 19.4449V21.9999C39.7917 22.4783 40.1883 22.8749 40.6667 22.8749C41.145 22.8749 41.5417 22.4783 41.5417 21.9999V17.3333C41.5417 17.2166 41.5183 17.1116 41.4717 16.9949Z" fill="#AB30FF"/>
</svg>
