<svg width="58" height="58" viewBox="0 0 58 58" fill="none" xmlns="http://www.w3.org/2000/svg">
<circle cx="29" cy="29" r="29" fill="#FC437B" fill-opacity="0.05"/>
<path d="M34.1801 18.6167C32.0685 18.6167 30.1785 19.6434 29.0001 21.2184C27.8218 19.6434 25.9318 18.6167 23.8202 18.6167C20.2385 18.6167 17.3335 21.5334 17.3335 25.1384C17.3335 26.5267 17.5552 27.81 17.9402 29C19.7835 34.8333 25.4651 38.3217 28.2768 39.2783C28.6735 39.4183 29.3268 39.4183 29.7235 39.2783C32.5351 38.3217 38.2168 34.8333 40.0601 29C40.4451 27.81 40.6668 26.5267 40.6668 25.1384C40.6668 21.5334 37.7618 18.6167 34.1801 18.6167Z" fill="#FC437B"/>
</svg>
