<svg width="58" height="58" viewBox="0 0 58 58" fill="none" xmlns="http://www.w3.org/2000/svg">
<circle cx="29" cy="29" r="29" fill="#FDA001" fill-opacity="0.05"/>
<path d="M38.3332 28.9999V35.9999C38.3332 38.5783 36.2448 40.6666 33.6665 40.6666H24.3332C21.7548 40.6666 19.6665 38.5783 19.6665 35.9999V28.9999C19.6665 28.3583 20.1915 27.8333 20.8332 27.8333H23.1315C23.7732 27.8333 24.2982 28.3583 24.2982 28.9999V32.6633C24.2982 33.5266 24.7765 34.3199 25.5348 34.7283C25.8732 34.9149 26.2465 35.0083 26.6315 35.0083C27.0748 35.0083 27.5182 34.8799 27.9032 34.6233L29.0115 33.8999L30.0382 34.5883C30.7498 35.0666 31.6598 35.1249 32.4182 34.7166C33.1882 34.3083 33.6665 33.5266 33.6665 32.6516V28.9999C33.6665 28.3583 34.1915 27.8333 34.8332 27.8333H37.1665C37.8082 27.8333 38.3332 28.3583 38.3332 28.9999Z" fill="#FDA001"/>
<path d="M40.0832 23.1666V24.3333C40.0832 25.6166 39.4648 26.6666 37.7498 26.6666H20.2498C18.4648 26.6666 17.9165 25.6166 17.9165 24.3333V23.1666C17.9165 21.8833 18.4648 20.8333 20.2498 20.8333H37.7498C39.4648 20.8333 40.0832 21.8833 40.0832 23.1666Z" fill="#FDA001"/>
<path d="M28.5801 20.8333H22.1401C21.7434 20.4016 21.7551 19.7366 22.1751 19.3166L23.8317 17.6599C24.2634 17.2283 24.9751 17.2283 25.4067 17.6599L28.5801 20.8333Z" fill="#FDA001"/>
<path d="M35.8482 20.8333H29.4082L32.5815 17.6599C33.0132 17.2283 33.7249 17.2283 34.1565 17.6599L35.8132 19.3166C36.2332 19.7366 36.2449 20.4016 35.8482 20.8333Z" fill="#FDA001"/>
<path d="M31.298 27.8333C31.9397 27.8333 32.4647 28.3583 32.4647 28.9999V32.6516C32.4647 33.5849 31.4264 34.1449 30.6564 33.6199L29.6064 32.9199C29.2214 32.6633 28.7197 32.6633 28.323 32.9199L27.2264 33.6433C26.4564 34.1566 25.4297 33.5966 25.4297 32.6749V28.9999C25.4297 28.3583 25.9547 27.8333 26.5964 27.8333H31.298Z" fill="#FDA001"/>
</svg>
