<svg width="68" height="68" viewBox="0 0 68 68" fill="none" xmlns="http://www.w3.org/2000/svg">
<rect width="68" height="68" rx="34" fill="#FF9F1C" fill-opacity="0.1"/>
<path d="M33.9992 43.9702L26.2434 48.7093C25.9007 48.9305 25.5425 49.0252 25.1688 48.9937C24.795 48.9621 24.4679 48.8357 24.1876 48.6145C23.9073 48.3934 23.6892 48.1172 23.5335 47.7861C23.3778 47.455 23.3466 47.0835 23.4401 46.6715L25.4958 37.7146L18.6277 31.696C18.3162 31.4116 18.1219 31.0875 18.0446 30.7235C17.9674 30.3596 17.9904 30.0044 18.1138 29.6582C18.2371 29.3119 18.424 29.0275 18.6744 28.8051C18.9249 28.5827 19.2675 28.4405 19.7023 28.3786L28.7664 27.573L32.2705 19.1374C32.4262 18.7583 32.6679 18.4739 32.9956 18.2843C33.3233 18.0948 33.6578 18 33.9992 18C34.3406 18 34.6751 18.0948 35.0028 18.2843C35.3305 18.4739 35.5722 18.7583 35.7279 19.1374L39.2321 27.573L48.2961 28.3786C48.7322 28.4418 49.0748 28.584 49.324 28.8051C49.5732 29.0263 49.76 29.3106 49.8846 29.6582C50.0092 30.0057 50.0329 30.3614 49.9557 30.7254C49.8784 31.0894 49.6834 31.4129 49.3707 31.696L42.5026 37.7146L44.5583 46.6715C44.6518 47.0822 44.6206 47.4538 44.4649 47.7861C44.3092 48.1185 44.0911 48.3946 43.8108 48.6145C43.5305 48.8344 43.2034 48.9608 42.8296 48.9937C42.4559 49.0265 42.0977 48.9317 41.755 48.7093L33.9992 43.9702Z" fill="#FF9F1C"/>
</svg>
