<svg width="68" height="68" viewBox="0 0 68 68" fill="none" xmlns="http://www.w3.org/2000/svg">
<rect width="68" height="68" rx="34" fill="#FF9F1C" fill-opacity="0.1"/>
<path d="M49 28.243V28.3525C49 29.6425 49 30.289 48.6895 30.817C48.379 31.345 47.8135 31.6585 46.6855 32.287L45.496 32.947C46.315 30.175 46.5895 27.196 46.69 24.649L46.705 24.3175L46.708 24.2395C47.6845 24.5785 48.2335 24.832 48.5755 25.306C49 25.8955 49 26.6785 49 28.243ZM19 28.243V28.3525C19 29.6425 19 30.289 19.3105 30.817C19.621 31.345 20.1865 31.6585 21.3145 32.287L22.5055 32.947C21.685 30.175 21.4105 27.196 21.31 24.649L21.295 24.3175L21.2935 24.2395C20.3155 24.5785 19.7665 24.832 19.4245 25.306C19 25.8955 19 26.68 19 28.243Z" fill="#FF9F1C"/>
<path fill-rule="evenodd" clip-rule="evenodd" d="M40.5656 19.5206C38.3953 19.1651 36.1992 18.991 34.0001 19.0001C31.3256 19.0001 29.1206 19.2356 27.4346 19.5206C25.7261 19.8086 24.8726 19.9526 24.1586 20.8316C23.4461 21.7106 23.4836 22.6601 23.5586 24.5591C23.8181 31.0811 25.2251 39.2291 32.8751 39.9491V45.2501H30.7301C30.3834 45.2503 30.0476 45.3706 29.7796 45.5904C29.5116 45.8103 29.328 46.1162 29.2601 46.4561L28.9751 47.8751H25.0001C24.7017 47.8751 24.4156 47.9936 24.2046 48.2046C23.9936 48.4156 23.8751 48.7017 23.8751 49.0001C23.8751 49.2985 23.9936 49.5846 24.2046 49.7956C24.4156 50.0066 24.7017 50.1251 25.0001 50.1251H43.0001C43.2984 50.1251 43.5846 50.0066 43.7956 49.7956C44.0065 49.5846 44.1251 49.2985 44.1251 49.0001C44.1251 48.7017 44.0065 48.4156 43.7956 48.2046C43.5846 47.9936 43.2984 47.8751 43.0001 47.8751H39.0251L38.7401 46.4561C38.6721 46.1162 38.4886 45.8103 38.2206 45.5904C37.9526 45.3706 37.6167 45.2503 37.2701 45.2501H35.1251V39.9491C42.7751 39.2291 44.1836 31.0826 44.4416 24.5591C44.5166 22.6601 44.5556 21.7091 43.8416 20.8316C43.1276 19.9526 42.2741 19.8086 40.5656 19.5206Z" fill="#FF9F1C"/>
</svg>
